# xmcd
#
# Track frame offsets:
#	150
#	42257
#	74685
#	111942
#	153844
#	219293
#	256681
#	289447
#
# Disc length: 4480 seconds
#
# Revision: 0
# Processed by: cddbd v1.5.2PL0 Copyright (c) Steve Scherf et al.
# Submitted via: EasyCDDAExtractor 15.2.5.1
#
DISCID=73117e08
DTITLE=Prazak Quartet - Ivan Klanzky Play Brahms - String Quartet n° 3, op. 67
DTITLE=Various Artist - piano Quintet, op. 34
DYEAR=1900
DGENRE=Classic
TTITLE0=String Quartet n° 3, op. 67 - I Vivace
TTITLE1=String Quartet n° 3, op. 67  - II Andante
TTITLE2=String Quartet n° 3, op. 67  - III Agitato Allegretto Non Troppo
TTITLE3=String Quartet n° 3, op. 67  - IV PFinale - Poco Allegretto Con Variaz
TTITLE3=ioni
TTITLE4=Piano Quintet in F Minor, OP. 34 - I Allegretto Non Troppo - Poco Sost
TTITLE4=enuto - Tempo I
TTITLE5=Piano Quintet in F Minor, OP. 34 - II Andante, Un Poco Adagio
TTITLE6=Piano Quintet in F Minor, OP. 34 - III Scherzo Allegro - Trio
TTITLE7=Piano Quintet in F Minor, OP. 34 - IV Finale, Poco Sostenuto - Allegro
TTITLE7=Non Tropo T I - Presto, No Troppoempo
EXTD=
EXTT0=
EXTT1=
EXTT2=
EXTT3=
EXTT4=
EXTT5=
EXTT6=
EXTT7=
PLAYORDER=
